<svg width="90" height="86" viewBox="0 0 90 86" fill="none" xmlns="http://www.w3.org/2000/svg">
<rect x="0.921753" y="0.92041" width="88.1005" height="84.7458" rx="31.8806" fill="#E4F7F2"/>
<path d="M48.6863 55.3278L47.5574 51.1197C47.4163 50.6219 46.8988 50.3052 46.3814 50.441C45.864 50.5767 45.5347 51.0744 45.6758 51.5722L46.8048 55.8255C45.6288 56.459 44.8291 57.6354 44.8291 58.9929C44.8291 61.029 46.5225 62.658 48.6393 62.658C50.7561 62.658 52.4495 61.029 52.4495 58.9929C52.4965 57.0019 50.8031 55.373 48.6863 55.3278Z" fill="#26C296"/>
<path d="M35.9888 44.9637L30.0148 46.9546C29.3092 46.1402 28.2743 45.5972 27.0513 45.5972C24.9345 45.5972 23.2411 47.2261 23.2411 49.2623C23.2411 51.2985 24.9345 52.9274 27.0513 52.9274C29.168 52.9274 30.8615 51.2985 30.8615 49.2623C30.8615 49.0813 30.8144 48.8551 30.8144 48.6741L36.6003 46.7284C37.1177 46.5474 37.3529 46.0497 37.2118 45.552C37.0707 45.0542 36.5062 44.7827 35.9888 44.9637Z" fill="#26C296"/>
<path d="M61.7643 41.0278C59.9768 41.0278 58.5186 42.2043 58.0953 43.7427H53.5324C53.015 43.7427 52.5446 44.15 52.5446 44.6477C52.5446 45.1454 52.968 45.5527 53.5324 45.5527H58.0482C58.4716 47.1363 59.9768 48.2675 61.7173 48.2675C63.8341 48.2675 65.5275 46.6386 65.5275 44.6024C65.5275 42.5663 63.8811 41.0278 61.7643 41.0278Z" fill="#26C296"/>
<path d="M44.8325 49.4443C48.3656 49.4443 51.2298 46.7094 51.2298 43.3358C51.2298 39.9622 48.3656 37.2273 44.8325 37.2273C41.2993 37.2273 38.4351 39.9622 38.4351 43.3358C38.4351 46.7094 41.2993 49.4443 44.8325 49.4443Z" fill="#26C296"/>
<path d="M39.0463 36.5046L36.9766 35.0114C37.1647 34.5589 37.2588 34.1064 37.2588 33.6087C37.2588 31.5725 35.5654 29.9436 33.4486 29.9436C31.3318 29.9436 29.6384 31.5725 29.6384 33.6087C29.6384 35.6449 31.3318 37.2738 33.4486 37.2738C34.3424 37.2738 35.142 36.9571 35.8006 36.5046L37.8703 38.043C38.0585 38.1788 38.2466 38.224 38.4348 38.224C38.717 38.224 38.9993 38.0883 39.1874 37.862C39.5637 37.4096 39.4697 36.8213 39.0463 36.5046Z" fill="#26C296"/>
<path d="M48.8348 36.8655C48.9759 36.9559 49.1641 37.0012 49.3522 37.0012C49.6815 37.0012 50.0108 36.8202 50.1989 36.5487L53.2095 31.7524C53.6328 31.8881 54.0562 31.9786 54.4795 31.9786C56.5963 31.9786 58.2897 30.3497 58.2897 28.3135C58.2897 26.2774 56.5963 24.6484 54.4795 24.6484C52.3628 24.6484 50.6693 26.2774 50.6693 28.3135C50.6693 29.2185 51.0456 30.033 51.6101 30.7117L48.5526 35.5985C48.2233 36.0057 48.3644 36.594 48.8348 36.8655Z" fill="#26C296"/>
</svg>
