<svg width="22" height="20" viewBox="0 0 22 20" fill="none" xmlns="http://www.w3.org/2000/svg">
<path d="M13.1831 11.4186V11.5885C13.1831 12.8628 12.1012 13.9035 10.7765 13.9035C9.45171 13.9035 8.36982 12.8628 8.36982 11.5885V11.4186L0.730346 9.99559C0.57579 9.97436 0.421234 9.93188 0.288757 9.84692V16.261C0.288757 17.8327 1.61352 19.107 3.2474 19.107H18.3276C19.9615 19.107 21.2863 17.8327 21.2863 16.261V9.84692C21.1538 9.91064 20.9992 9.95312 20.8447 9.99559L13.1831 11.4186Z" fill="#73738D"/>
<path d="M18.3497 4.09125H15.656V3.02932C15.656 1.39394 14.265 0.0559082 12.5649 0.0559082H8.98804C7.28793 0.0559082 5.89693 1.39394 5.89693 3.02932V4.09125H3.20324C1.59144 4.09125 0.288757 5.34433 0.288757 6.89476V8.08412C0.288757 8.46642 0.57579 8.785 0.951139 8.86995L8.36982 10.2505C8.3919 8.99738 9.45171 7.99917 10.7765 7.99917C12.0792 7.99917 13.1611 8.99738 13.1831 10.2505L20.5797 8.86995C20.9772 8.785 21.2642 8.46642 21.2642 8.08412V6.87352C21.2642 5.34433 19.9615 4.09125 18.3497 4.09125ZM8.1711 3.00808C8.1711 2.58331 8.54645 2.24349 8.96596 2.24349H12.5649C13.0065 2.24349 13.3598 2.60455 13.3598 3.00808V4.07001H8.1711V3.00808Z" fill="#73738D"/>
<path d="M11.9915 11.588V10.3136C11.9915 9.67647 11.4395 9.14551 10.7771 9.14551C10.1147 9.14551 9.56274 9.67647 9.56274 10.3136V11.588C9.56274 12.2251 10.1147 12.7561 10.7771 12.7561C11.4395 12.7561 11.9915 12.2251 11.9915 11.588Z" fill="#73738D"/>
</svg>
