<svg width="24" height="23" viewBox="0 0 24 23" fill="none" xmlns="http://www.w3.org/2000/svg">
<g opacity="0.6">
<path d="M23.0942 20.7124H0.481709C0.298167 20.7124 0.114624 20.8889 0.114624 21.0654C0.114624 22.0891 0.995629 22.9363 2.06018 22.9363H21.5524C22.6169 22.9363 23.498 22.0891 23.498 21.0654C23.4612 20.8889 23.3144 20.7124 23.0942 20.7124Z" fill="#73738D"/>
<path d="M21.6625 15.0267C20.8549 14.4618 19.6803 14.3911 18.7625 14.8149C17.8448 15.2386 16.7436 15.2386 15.7892 14.8149C15.0183 14.4618 14.0271 14.4618 13.2563 14.8149C12.3386 15.2386 11.2373 15.2386 10.2829 14.8149C9.512 14.4618 8.52086 14.4618 7.74999 14.8149C6.83227 15.2386 5.73102 15.2386 4.7766 14.8149C3.89559 14.4265 2.79433 14.4618 1.98675 14.9561C1.95004 14.9561 1.91333 14.9914 1.91333 15.0267V20.0056H21.6625V15.0267Z" fill="#73738D"/>
<path d="M5.14365 14.18C5.87782 14.4978 6.75883 14.4978 7.45629 14.18C8.44742 13.721 9.6588 13.721 10.6132 14.18C11.3474 14.4978 12.2284 14.4978 12.9259 14.18C13.917 13.721 15.1284 13.721 16.1195 14.18C16.8537 14.4978 17.7347 14.4978 18.4321 14.18C19.4233 13.721 20.6714 13.721 21.6258 14.2154V13.7563C21.6258 12.1673 20.2676 10.8608 18.6157 10.8608H4.96011C3.30823 10.8608 1.95001 12.1673 1.95001 13.7563V14.2154C2.90443 13.7563 4.11582 13.721 5.14365 14.18Z" fill="#73738D"/>
<path d="M17.5145 7.68296C17.5145 6.97675 16.9271 6.37646 16.1563 6.37646C15.4221 6.37646 14.798 6.94144 14.798 7.68296V10.1547H17.5145V7.68296Z" fill="#73738D"/>
<path d="M8.77789 7.68296C8.77789 6.97675 8.15385 6.37646 7.41968 6.37646C6.68551 6.37646 6.06146 6.94144 6.06146 7.68296V10.1547H8.77789V7.68296Z" fill="#73738D"/>
<path d="M13.1462 6.16441C13.1462 5.45819 12.5221 4.85791 11.788 4.85791C11.0538 4.85791 10.4297 5.45819 10.4297 6.16441V10.1545H13.1462V6.16441Z" fill="#73738D"/>
<path d="M16.1563 5.45643C16.8905 5.45643 17.4778 4.89146 17.4778 4.18524C17.4778 3.62027 16.7069 2.3844 16.45 2.03129C16.3765 1.92536 16.2664 1.85474 16.1563 1.85474C16.0462 1.85474 15.8993 1.92536 15.8626 2.03129C15.6057 2.3844 14.8348 3.62027 14.8348 4.18524C14.8348 4.89146 15.4221 5.45643 16.1563 5.45643Z" fill="#73738D"/>
<path d="M7.41971 5.45643C8.15388 5.45643 8.74122 4.89146 8.74122 4.18524C8.74122 3.62027 7.97034 2.3844 7.71338 2.03129C7.63996 1.92536 7.52984 1.85474 7.41971 1.85474C7.30959 1.85474 7.16275 1.92536 7.12604 2.03129C6.86908 2.3844 6.09821 3.62027 6.09821 4.18524C6.09821 4.89146 6.68554 5.45643 7.41971 5.45643Z" fill="#73738D"/>
<path d="M11.7879 3.93983C12.5221 3.93983 13.1094 3.37486 13.1094 2.66864C13.1094 2.10367 12.3386 0.903106 12.0816 0.514688C12.0449 0.408756 11.8981 0.338135 11.7879 0.338135C11.6778 0.338135 11.531 0.408756 11.4943 0.514688C11.2373 0.867796 10.4664 2.10367 10.4664 2.66864C10.4664 3.33955 11.0538 3.93983 11.7879 3.93983Z" fill="#73738D"/>
</g>
</svg>
