<svg width="89" height="86" viewBox="0 0 89 86" fill="none" xmlns="http://www.w3.org/2000/svg">
<rect x="0.895264" y="0.423828" width="88.1005" height="84.7458" rx="31.8806" fill="#E4F7F2"/>
<path d="M35.2896 43.4338C34.8881 42.7096 34.0851 42.2752 33.2319 42.2752H30.572C31.2245 35.2752 37.297 29.7718 44.7246 29.7718C47.1336 29.7718 49.4923 30.3511 51.6001 31.5098C52.7042 32.1373 54.1095 31.7511 54.7619 30.6408C55.4143 29.5787 55.0128 28.227 53.8585 27.5994C51.0983 26.1029 47.9365 25.2822 44.7246 25.2822C34.7375 25.2822 26.6073 32.8132 26.0051 42.2269H23.1946C22.3415 42.2269 21.5385 42.6614 21.137 43.3855C20.7355 44.1096 20.7857 44.9786 21.2374 45.6544L26.256 53.0889C26.7077 53.7164 27.4103 54.1026 28.2133 54.1026C29.0163 54.1026 29.7189 53.7164 30.1705 53.0889L35.1892 45.6544C35.691 45.0269 35.691 44.1096 35.2896 43.4338Z" fill="#26C296"/>
<path d="M68.2189 41.0691L63.2003 33.6347C62.3471 32.3796 60.1891 32.3796 59.3359 33.6347L54.2671 41.0691C53.8154 41.745 53.7653 42.614 54.1667 43.3381C54.5682 44.0622 55.3712 44.4967 56.2244 44.4967H58.8843C58.2318 51.4966 52.1593 57 44.7317 57C42.3729 57 39.964 56.4207 37.8562 55.2621C36.7521 54.6828 35.3468 55.069 34.6944 56.1311C34.0922 57.1931 34.4937 58.5448 35.5978 59.1724C38.4082 60.669 41.5198 61.4414 44.7317 61.4414C54.7188 61.4414 62.849 53.9104 63.5014 44.4967H66.2617C67.1148 44.4967 67.9178 44.0622 68.3193 43.3381C68.6706 42.614 68.6706 41.745 68.2189 41.0691Z" fill="#26C296"/>
</svg>
