<svg width="22" height="21" viewBox="0 0 22 21" fill="none" xmlns="http://www.w3.org/2000/svg">
<path opacity="0.6" d="M10.8599 0.643311C5.00308 0.643311 0.287842 5.22674 0.287842 10.8128C0.287842 16.4466 5.05271 20.9823 10.8599 20.9823C16.7167 20.9823 21.432 16.3989 21.432 10.8128C21.432 5.179 16.7167 0.643311 10.8599 0.643311ZM15.5751 9.81018L11.1577 14.0594C10.8599 14.3459 10.4132 14.5368 10.0161 14.5368C9.61905 14.5368 9.17234 14.3936 8.87453 14.0594L6.14466 11.4335C5.49942 10.8128 5.49942 9.81017 6.14466 9.1895C6.7899 8.56883 7.83222 8.56883 8.47746 9.1895L10.0658 10.7173L13.292 7.61395C13.9372 6.99327 14.9795 6.99327 15.6248 7.61395C16.2204 8.18688 16.2204 9.1895 15.5751 9.81018Z" fill="#73738D"/>
</svg>
